HIERARCHY
ROOT Hips
{
	OFFSET -3.958830 18.904000 13.208200
	CHANNELS 6 Xposition Yposition Zposition Zrotation Yrotation Xrotation 
	JOINT LHipJoint
	{
		OFFSET 0.000000 0.000000 0.000000
		CHANNELS 3 Zrotation Yrotation Xrotation
		JOINT LeftUpLeg
		{
			OFFSET 1.800000 -1.400000 0.085000
			CHANNELS 3 Zrotation Yrotation Xrotation
			JOINT LeftLeg
			{
				OFFSET 2.215000 -6.000000 0.000000
				CHANNELS 3 Zrotation Yrotation Xrotation
				JOINT LeftFoot
				{
					OFFSET 2.500000 -6.900000 0.000000
					CHANNELS 3 Zrotation Yrotation Xrotation
					JOINT LeftToeBase
					{
						OFFSET 0.200000 -0.500000 1.950000
						CHANNELS 3 Zrotation Yrotation Xrotation
						End Site
						{
							OFFSET 0.000000 0.000000 0.000000
						}
					}
				}
			}
		}
	}
	JOINT RHipJoint
	{
		OFFSET 0.000000 0.000000 0.000000
		CHANNELS 3 Zrotation Yrotation Xrotation
		JOINT RightUpLeg
		{
			OFFSET -1.800000 -1.400000 0.085000
			CHANNELS 3 Zrotation Yrotation Xrotation
			JOINT RightLeg
			{
				OFFSET -2.215000 -6.000000 0.000000
				CHANNELS 3 Zrotation Yrotation Xrotation
				JOINT RightFoot
				{
					OFFSET -2.500000 -6.900000 0.000000
					CHANNELS 3 Zrotation Yrotation Xrotation
					JOINT RightToeBase
					{
						OFFSET -0.200000 -0.500000 1.950000
						CHANNELS 3 Zrotation Yrotation Xrotation
						End Site
						{
							OFFSET 0.000000 0.000000 0.000000
						}
					}
				}
			}
		}
	}
	JOINT LowerBack
	{
		OFFSET 0.000000 0.000000 0.000000
		CHANNELS 3 Zrotation Yrotation Xrotation
		JOINT Spine
		{
			OFFSET -0.087000 1.940000 -0.288900
			CHANNELS 3 Zrotation Yrotation Xrotation
			JOINT Spine1
			{
				OFFSET 0.000000 1.950000 0.060000
				CHANNELS 3 Zrotation Yrotation Xrotation
				JOINT Neck
				{
					OFFSET 0.000000 0.000000 0.000000
					CHANNELS 3 Zrotation Yrotation Xrotation
					JOINT Neck1
					{
						OFFSET 0.000000 1.600000 0.340000
						CHANNELS 3 Zrotation Yrotation Xrotation
						JOINT Head
						{
							OFFSET 0.000000 1.667000 -0.240000
							CHANNELS 3 Zrotation Yrotation Xrotation
							End Site
							{
								OFFSET 0.000000 0.000000 0.000000
							}
						}
					}
				}
				JOINT LeftShoulder
				{
					OFFSET 0.000000 0.000000 0.000000
					CHANNELS 3 Zrotation Yrotation Xrotation
					JOINT LeftArm
					{
						OFFSET 2.700000 1.550000 -0.730000
						CHANNELS 3 Zrotation Yrotation Xrotation
						JOINT LeftForeArm
						{
							OFFSET 5.450000 0.000000 0.000000
							CHANNELS 3 Zrotation Yrotation Xrotation
							JOINT LeftHand
							{
								OFFSET 3.450000 0.000000 0.000000
								CHANNELS 3 Zrotation Yrotation Xrotation
								JOINT LeftHandIndex1
								{
									OFFSET 0.750000 0.000000 0.000000
									CHANNELS 3 Zrotation Yrotation Xrotation
									End Site
									{
										OFFSET 0.000000 0.000000 0.000000
									}
								}
							}
						}
					}
				}
				JOINT RightShoulder
				{
					OFFSET 0.000000 0.000000 0.000000
					CHANNELS 3 Zrotation Yrotation Xrotation
					JOINT RightArm
					{
						OFFSET -2.700000 1.550000 -0.730000
						CHANNELS 3 Zrotation Yrotation Xrotation
						JOINT RightForeArm
						{
							OFFSET -5.450000 0.000000 0.000000
							CHANNELS 3 Zrotation Yrotation Xrotation
							JOINT RightHand
							{
								OFFSET -3.450000 0.000000 0.000000
								CHANNELS 3 Zrotation Yrotation Xrotation
								JOINT RightHandIndex1
								{
									OFFSET -0.750000 0.000000 0.000000
									CHANNELS 3 Zrotation Yrotation Xrotation
									End Site
									{
										OFFSET 0.000000 0.000000 0.000000
									}
								}
							}
						}
					}
				}
			}
		}
	}
}
MOTION
Frames: 13
Frame Time: 0.016667
0.067980 17.720440 -0.834840 -1.947120 -3.310821 -3.178558 -14.952113 13.328927 2.722112 4.483634 -0.846870 -10.698683 -8.496845 7.373149 17.132036 -0.279842 4.861700 3.027745 -0.032560 -0.095130 -0.123590 18.441397 -11.486170 2.407498 -3.750823 0.972984 -12.784919 1.071472 -4.201629 19.858070 0.164924 -3.907705 3.026148 0.178410 0.703670 0.120810 -4.074158 -0.824398 -6.697193 11.085259 0.382188 3.927759 -2.679259 0.196748 12.433584 0.636122 -3.116653 -8.784372 -6.574403 3.313664 30.273487 -3.351860 1.782400 4.631600 -8.737432 -15.502318 4.280929 -14.270213 -25.546390 0.795219 64.846390 -45.349687 -26.848538 -4.021166 2.699323 -0.196980 0.532490 -0.464350 0.125420 7.668640 18.176075 3.987233 12.842503 27.092928 -1.896560 -64.077230 45.803186 -27.066650 1.779448 -1.345185 -0.303620 0.245930 0.187590 0.063670 
0.065880 17.720380 -0.832860 -1.858475 -3.326258 -3.186695 -14.957420 13.328896 2.723606 4.418420 -0.821491 -10.548760 -8.514591 7.351736 16.987473 -0.278072 4.854828 3.030521 -0.017770 -0.079670 -0.108660 18.437285 -11.485759 2.400535 -3.806467 1.003993 -12.904768 1.054310 -4.205999 20.063414 0.159328 -3.915389 3.016499 0.187870 0.697660 0.127370 -4.060740 -0.824911 -6.690038 10.922775 0.388581 3.891672 -2.625649 0.196003 12.485892 0.641726 -3.079166 -8.725342 -6.490585 3.299999 30.206065 -3.398280 1.812990 4.439180 -8.503460 -15.384818 4.238756 -14.131679 -25.745726 0.847051 65.429071 -44.860455 -26.917568 -4.026133 2.711855 -0.198760 0.531470 -0.456670 0.128050 7.435551 18.052998 3.886867 12.552279 27.326285 -1.797643 -64.398972 45.355722 -27.048888 1.788907 -1.365952 -0.297230 0.243200 0.177960 0.063690 
0.064010 17.721750 -0.831320 -1.722674 -3.266197 -3.244721 -14.964423 13.328328 2.729150 4.335856 -0.779962 -10.305693 -8.603542 7.330330 16.722450 -0.284531 4.850059 3.033573 0.000370 -0.060820 -0.091980 18.431896 -11.483516 2.386948 -3.954111 1.043260 -13.062624 1.107535 -4.251135 20.408098 0.152401 -3.941898 2.998990 0.201780 0.691210 0.131410 -4.044695 -0.831894 -6.681773 10.751848 0.354682 3.862438 -2.609282 0.165299 12.574410 0.652391 -3.079614 -8.629883 -6.482927 3.243961 30.146687 -3.588410 1.829910 4.211350 -8.179477 -15.226159 4.154216 -13.741165 -26.099563 0.915502 66.344009 -43.947441 -26.927814 -4.036314 2.731432 -0.197610 0.531330 -0.451810 0.130620 7.099338 17.914488 3.745293 11.918969 27.684592 -1.679218 -65.115973 44.613791 -27.107190 1.799203 -1.398386 -0.294890 0.242040 0.168390 0.060490 
0.061660 17.723500 -0.829390 -1.618078 -3.192329 -3.307997 -14.970743 13.328223 2.732791 4.297280 -0.750573 -10.144281 -8.687838 7.334793 16.586584 -0.290117 4.854265 3.031370 0.011960 -0.046250 -0.084840 18.427020 -11.481025 2.376603 -4.058962 1.054144 -13.110443 1.146996 -4.282765 20.600433 0.148207 -3.961247 2.989212 0.213190 0.687240 0.130540 -4.030256 -0.839812 -6.675849 10.630733 0.358837 3.833276 -2.551109 0.176067 12.685042 0.667594 -3.061767 -8.564917 -6.465544 3.180556 30.184547 -3.692620 1.797090 4.047290 -7.693303 -15.073645 4.070133 -13.387176 -26.622986 1.031948 67.393189 -42.798822 -26.899115 -4.049313 2.753783 -0.197850 0.531150 -0.450770 0.132490 6.591175 17.756965 3.638472 11.055173 27.898445 -1.647056 -66.088571 43.768002 -27.235480 1.809755 -1.430874 -0.294380 0.244320 0.164500 0.058210 
0.057850 17.727060 -0.826510 -1.581142 -3.094158 -3.401332 -14.972795 13.322214 2.733076 4.340984 -0.712304 -9.888527 -8.771062 7.309769 16.300721 -0.306855 4.859185 3.031692 0.029690 -0.033950 -0.064530 18.427064 -11.480493 2.371701 -4.078329 1.057115 -13.069518 1.193814 -4.316001 20.729012 0.138727 -3.979325 2.979583 0.226460 0.681060 0.133780 -4.029400 -0.830608 -6.672567 10.654313 0.323822 3.822958 -2.601043 0.158807 12.827273 0.716592 -3.033092 -8.494979 -6.428475 3.034205 30.255399 -3.900930 1.718530 3.698060 -7.177579 -14.920588 3.974904 -12.820302 -27.028195 1.080954 68.625398 -41.647062 -26.940759 -4.061776 2.765804 -0.185740 0.529710 -0.444220 0.134070 5.982746 17.578148 3.531579 10.197985 28.182128 -1.632751 -67.152993 42.681689 -27.310428 1.820616 -1.466466 -0.299070 0.250150 0.157590 0.049580 
0.054000 17.732840 -0.823490 -1.602795 -2.874377 -3.507136 -14.974250 13.317116 2.727622 4.411222 -0.687525 -9.695360 -8.756183 7.259179 16.065508 -0.323298 4.849853 3.030040 0.041010 -0.019490 -0.051370 18.427732 -11.477413 2.372226 -4.119224 0.988827 -12.787855 1.415324 -4.383807 20.505302 0.127408 -3.991457 2.968958 0.239470 0.670720 0.136790 -4.032176 -0.827481 -6.671076 10.756227 0.265000 3.838870 -2.700192 0.131930 12.987059 0.789904 -2.995345 -8.426739 -6.377083 2.866362 30.295839 -4.191630 1.688290 3.250600 -6.760722 -14.815829 3.849790 -12.139392 -27.522095 1.090362 69.877220 -40.441461 -26.933859 -4.078185 2.779817 -0.178770 0.526750 -0.434260 0.130660 5.419385 17.412621 3.469652 9.224861 28.273842 -1.733313 -68.376704 41.565707 -27.427884 1.834567 -1.500383 -0.299420 0.254490 0.156540 0.043710 
0.048380 17.737920 -0.819510 -1.567902 -2.664765 -3.642644 -14.978664 13.312979 2.723934 4.447157 -0.649931 -9.439245 -8.748700 7.206303 15.776245 -0.342744 4.839522 3.030588 0.055830 -0.001710 -0.032060 18.426105 -11.476254 2.367104 -4.192089 0.911645 -12.455450 1.516294 -4.411941 20.265399 0.120739 -4.002359 2.963440 0.256480 0.660870 0.134200 -4.027031 -0.826827 -6.665868 10.734170 0.213268 3.860550 -2.786631 0.108539 13.161317 0.844550 -2.937711 -8.330347 -6.272456 2.745571 30.271051 -4.474180 1.729310 2.825730 -6.297240 -14.690282 3.683624 -11.196109 -27.993358 1.035761 70.961149 -39.195480 -26.759736 -4.096180 2.792975 -0.174250 0.526480 -0.429600 0.125480 4.853624 17.223494 3.391895 8.213302 28.384358 -1.834395 -69.473444 40.411931 -27.445039 1.847570 -1.537364 -0.302960 0.260840 0.152250 0.034630 
0.041520 17.744220 -0.816560 -1.509354 -2.441610 -3.805793 -14.985828 13.311325 2.719639 4.453795 -0.609962 -9.170874 -8.714170 7.148627 15.495391 -0.367580 4.838156 3.031708 0.063510 0.008970 -0.020280 18.422621 -11.469483 2.363163 -4.268055 0.822748 -12.066968 1.625828 -4.429613 19.894993 0.116113 -4.008590 2.958876 0.273350 0.661560 0.130450 -4.015538 -0.840487 -6.660170 10.651765 0.158686 3.924570 -2.841262 0.091960 13.364066 0.864771 -2.914533 -8.232979 -6.211231 2.709554 30.140181 -4.689730 1.781810 2.411740 -5.781569 -14.546610 3.506766 -10.287906 -28.466961 0.964270 72.028485 -37.904253 -26.558644 -4.121727 2.802802 -0.170030 0.530410 -0.430160 0.120520 4.307376 17.043474 3.323613 7.125793 28.396261 -2.011305 -70.555651 39.339672 -27.464032 1.855196 -1.568586 -0.313330 0.275780 0.155950 0.026430 
0.037350 17.751270 -0.815480 -1.645604 -2.347398 -3.951895 -14.979794 13.300839 2.705520 4.611989 -0.609091 -9.067335 -8.645940 7.125277 15.454453 -0.383664 4.848239 3.028679 0.069150 0.014360 -0.008620 18.431163 -11.470445 2.375722 -4.171806 0.719392 -11.586878 1.743896 -4.433142 19.372441 0.111018 -4.008399 2.960905 0.284770 0.662820 0.128480 -4.038028 -0.816353 -6.660245 10.980013 0.114056 4.009764 -3.041263 0.105023 13.554240 0.932495 -2.895898 -8.193116 -6.155416 2.660469 30.037578 -4.815350 1.790550 2.138910 -5.304595 -14.492257 3.387705 -9.377339 -28.847276 0.827066 73.214327 -36.681903 -26.445237 -4.144703 2.811706 -0.167830 0.533870 -0.430110 0.117220 3.688224 16.920374 3.306709 5.979725 28.254787 -2.279706 -71.444500 38.200780 -27.311476 1.868639 -1.602114 -0.320900 0.287460 0.156890 0.020400 
0.032800 17.757590 -0.815940 -1.703110 -2.250011 -4.117814 -14.978379 13.299534 2.691812 4.660028 -0.608676 -8.978177 -8.459076 7.073597 15.474134 -0.396543 4.836446 3.028605 0.071570 0.020150 0.002160 18.433417 -11.469280 2.389125 -4.233583 0.580966 -10.997799 2.003095 -4.473547 18.686082 0.103368 -4.009162 2.959942 0.291460 0.655450 0.123730 -4.044992 -0.813941 -6.664901 11.163169 0.103274 4.133956 -3.147484 0.153579 13.731490 1.003658 -2.888711 -8.210716 -6.139591 2.594920 29.993645 -4.979680 1.833870 1.809490 -4.874881 -14.523636 3.308246 -8.338650 -29.078191 0.587973 74.328865 -35.553695 -26.308612 -4.160292 2.819825 -0.164450 0.530600 -0.425770 0.108550 3.115043 16.916660 3.356635 4.661618 27.903288 -2.676722 -72.181755 37.111918 -27.049995 1.887117 -1.629649 -0.324130 0.294470 0.158880 0.014530 
0.026570 17.764070 -0.813750 -1.759057 -2.161719 -4.280011 -14.979506 13.296339 2.679459 4.761731 -0.577486 -8.728228 -8.328206 7.001226 15.263759 -0.417642 4.829485 3.029918 0.082770 0.028200 0.014610 18.434674 -11.462737 2.403235 -4.239132 0.471678 -10.470011 2.193562 -4.493319 18.052614 0.092264 -4.013047 2.959503 0.301610 0.651500 0.126440 -4.046618 -0.814190 -6.670841 11.308495 0.129610 4.258742 -3.249948 0.234796 13.899701 1.072202 -2.841320 -8.240714 -6.031483 2.546911 29.823769 -5.039760 1.842440 1.395150 -4.461444 -14.606572 3.202091 -7.109443 -29.293774 0.296523 75.288859 -34.499883 -26.119196 -4.175240 2.830568 -0.152510 0.529480 -0.421140 0.106540 2.565146 16.928995 3.459466 3.357931 27.348792 -3.129642 -72.948902 36.168522 -26.861472 1.893584 -1.658210 -0.329140 0.300610 0.159550 0.006300 
0.018670 17.771160 -0.810970 -1.775531 -1.976776 -4.489034 -14.983960 13.296513 2.673502 4.869364 -0.517290 -8.331960 -8.287888 6.939271 14.898971 -0.435304 4.831783 3.029065 0.088060 0.032830 0.020890 18.433005 -11.451589 2.410809 -4.281291 0.377689 -9.996891 2.381691 -4.531981 17.614613 0.082948 -4.027458 2.954325 0.310620 0.651820 0.126810 -4.040837 -0.832259 -6.679556 11.395576 0.116203 4.446122 -3.342364 0.282828 14.074613 1.107544 -2.834405 -8.277327 -5.988735 2.518478 29.580451 -5.011580 1.784620 0.954350 -4.109212 -14.750320 3.102922 -5.720054 -29.398343 -0.088797 76.029837 -33.508223 -25.834691 -4.193296 2.836108 -0.143090 0.529190 -0.419110 0.102150 2.141468 17.033583 3.575826 1.860054 26.706937 -3.671425 -73.605629 35.205181 -26.570066 1.901597 -1.680575 -0.335680 0.311050 0.165690 0.000420 
0.012080 17.780400 -0.814600 -1.878266 -1.893449 -4.759415 -14.984038 13.298841 2.669399 5.044735 -0.464460 -7.956510 -8.263536 6.890641 14.580088 -0.457355 4.848129 3.026921 0.087960 0.027460 0.022450 18.433667 -11.440850 2.426919 -4.255517 0.283644 -9.480814 2.573644 -4.575608 17.155195 0.068885 -4.039370 2.953407 0.313830 0.657790 0.127370 -4.042831 -0.851526 -6.703426 11.679838 0.155993 4.850943 -3.477447 0.420420 14.271954 1.162101 -2.859215 -8.401013 -6.015890 2.461217 29.361224 -4.902660 1.635290 0.386690 -3.904094 -15.152265 3.017127 -3.875512 -29.393451 -0.676470 76.421481 -32.569614 -25.395660 -4.209614 2.826180 -0.120250 0.526460 -0.413930 0.100520 1.810802 17.407261 3.844565 -0.075314 25.536510 -4.507669 -74.253359 34.237052 -26.203568 1.907256 -1.690893 -0.349400 0.330830 0.176420 -0.006150 
